<svg xmlns="http://www.w3.org/2000/svg" xmlns:xlink="http://www.w3.org/1999/xlink" width="1024" zoomAndPan="magnify" viewBox="0 0 768 767.999994" height="1024" preserveAspectRatio="xMidYMid meet" version="1.0"><path fill="#303159" d="M 590.714844 362.0625 C 597.066406 365.183594 601.359375 368.59375 602.675781 369.667969 C 604.867188 371.453125 615.710938 380.585938 622.425781 398.789062 C 625.988281 408.464844 626.738281 416.226562 627.136719 439.320312 C 627.359375 452.484375 627.449219 469.410156 627.039062 489.238281 L 602.011719 489.238281 C 601.914062 472.507812 601.816406 455.78125 601.71875 439.050781 C 601.734375 437.789062 601.738281 435.773438 601.679688 433.304688 C 601.351562 419.535156 601.132812 410.308594 596.484375 401.707031 C 593.128906 395.503906 588.683594 391.867188 586.449219 390.074219 C 583.925781 388.050781 573.300781 380.023438 557.960938 380.722656 C 547.359375 381.203125 539.953125 385.605469 537.808594 386.960938 C 536.316406 387.90625 529.523438 392.347656 524.308594 401.109375 C 523.019531 403.28125 518.730469 410.917969 518.21875 420.699219 C 517.238281 439.597656 530.664062 460.175781 549.269531 465.398438 C 559.289062 468.203125 568.558594 465.929688 571.988281 465.046875 C 581.023438 462.710938 587.347656 458.289062 590.738281 455.519531 C 590.871094 465.136719 591.007812 474.742188 591.136719 484.359375 C 576.988281 490.011719 564.660156 492.90625 549.578125 491.054688 C 532.710938 488.984375 521.03125 479.796875 516.914062 476.363281 C 514.34375 474.210938 502.304688 463.824219 496.085938 445.273438 C 489.921875 426.871094 493.164062 411.390625 494.109375 407.371094 C 495.578125 401.09375 499.140625 389.953125 508.222656 379.191406 C 510.210938 376.835938 524.398438 360.503906 547.949219 356.28125 C 549.75 355.957031 555.890625 354.9375 563.949219 355.371094 C 578.390625 356.144531 588.699219 361.074219 590.714844 362.0625 Z M 590.714844 362.0625 " fill-opacity="1" fill-rule="nonzero"/><path fill="#303159" d="M 187.921875 323.414062 C 195.515625 316.46875 204.523438 310.980469 214.648438 307.628906 C 240.613281 299.03125 263.445312 307.941406 267.734375 309.703125 C 280.460938 314.925781 289.050781 322.507812 293.84375 327.441406 C 301.539062 320.765625 309.234375 314.085938 316.925781 307.410156 C 312.988281 303.023438 307.183594 297.292969 299.296875 291.71875 C 278.023438 276.703125 256.988281 273.734375 250.28125 273.007812 C 244.546875 272.378906 229.109375 271.175781 210.324219 276.449219 C 204.171875 278.175781 184.824219 284.199219 166.074219 301.238281 C 162.601562 304.394531 157.6875 309.253906 152.617188 315.796875 C 166.261719 315.171875 178.304688 318.78125 187.921875 323.414062 Z M 187.921875 323.414062 " fill-opacity="1" fill-rule="nonzero"/><path fill="#303159" d="M 171.988281 428.925781 L 173.226562 427.09375 C 170.191406 422.128906 167.691406 416.84375 165.773438 411.34375 C 164.453125 411.066406 162.953125 410.765625 161.234375 410.429688 C 158.601562 409.914062 155.617188 409.328125 152.191406 408.585938 C 142.640625 406.539062 136.058594 404.699219 131.296875 403.011719 C 132.195312 408.480469 133.476562 413.902344 135.171875 419.226562 C 140.445312 422.40625 146.863281 425.386719 154.28125 427.164062 C 156.96875 427.808594 163.574219 429.390625 171.988281 428.925781 Z M 171.988281 428.925781 " fill-opacity="1" fill-rule="nonzero"/><path fill="#303159" d="M 165.140625 354.5625 C 159.839844 352.777344 153.246094 350.550781 144.488281 351.628906 C 143.84375 351.710938 143.199219 351.800781 142.550781 351.921875 L 140.183594 359.851562 C 140.046875 360.292969 139.980469 360.734375 139.957031 361.175781 C 139.972656 361.460938 140.101562 363.269531 141.203125 365.003906 C 142.46875 367.011719 150.34375 368.859375 156.675781 370.34375 C 158.429688 370.753906 160.230469 371.183594 162.105469 371.640625 C 162.277344 370.539062 162.464844 369.433594 162.683594 368.339844 C 163.574219 363.832031 164.871094 359.386719 166.523438 355.058594 C 166.058594 354.890625 165.609375 354.71875 165.140625 354.5625 Z M 165.140625 354.5625 " fill-opacity="1" fill-rule="nonzero"/><path fill="#303159" d="M 256.648438 463.679688 C 232.972656 469.394531 212.398438 460.890625 200.183594 453.609375 C 193.84375 458.4375 187.140625 460.761719 182.484375 462.382812 C 181.574219 462.703125 180.675781 462.996094 179.789062 463.261719 C 174.59375 464.8125 169.605469 465.585938 165.007812 465.863281 C 173.339844 473.308594 186.179688 482.574219 203.453125 488.617188 C 213.945312 492.292969 241.183594 501.375 271.71875 490.222656 C 286.753906 484.734375 297.246094 476.28125 303.359375 470.484375 C 297.878906 462.929688 292.386719 455.386719 286.898438 447.832031 C 281.355469 452.65625 271.15625 460.175781 256.648438 463.679688 Z M 256.648438 463.679688 " fill-opacity="1" fill-rule="nonzero"/><path fill="#303159" d="M 204.253906 342.226562 C 198.832031 348.023438 193.410156 353.8125 187.980469 359.609375 C 179.925781 353.144531 172.230469 349.898438 167.28125 348.234375 C 161.78125 346.378906 153.9375 343.734375 143.671875 345 C 134.871094 346.078125 128.648438 349.5 126.414062 350.8125 C 119.078125 355.148438 114.703125 360.621094 112.515625 363.808594 C 119.59375 361.851562 126.683594 359.894531 133.761719 357.9375 C 133.539062 358.6875 133.28125 359.796875 133.261719 361.140625 C 133.261719 361.140625 133.183594 364.867188 135.539062 368.59375 C 138.9375 373.964844 149.316406 375.285156 162.585938 378.675781 C 171.246094 380.886719 175.574219 381.988281 180.308594 383.796875 C 190.363281 387.636719 197.625 390.40625 203.191406 397.695312 C 208.703125 404.917969 209.574219 412.648438 209.863281 415.597656 C 210.140625 418.386719 210.914062 429.34375 204.03125 439.824219 C 197.210938 450.195312 187.09375 453.703125 180.277344 456.066406 C 163.828125 461.773438 149.4375 458.527344 143.03125 456.996094 C 127.988281 453.398438 118.230469 445.941406 115.507812 443.765625 C 110.960938 440.128906 107.65625 436.507812 105.441406 433.792969 C 110.691406 428.339844 115.933594 422.886719 121.183594 417.433594 C 126.773438 422.136719 137.664062 430.066406 152.714844 433.671875 C 156.53125 434.585938 165.210938 436.582031 176.203125 435.277344 C 178.476562 435.007812 181.476562 434.640625 185.078125 433.523438 C 189.335938 432.203125 197.566406 428.871094 205.546875 419.746094 C 197.953125 421.46875 190.363281 423.1875 182.773438 424.914062 C 183.148438 424.359375 183.644531 423.511719 183.96875 422.398438 C 185.363281 417.667969 182.363281 413.0625 181.363281 411.675781 C 177.089844 405.71875 170.65625 405.710938 153.585938 402.046875 C 132.742188 397.566406 127.042969 394.289062 123.285156 391.558594 C 120.699219 389.683594 116.773438 386.78125 113.355469 381.628906 C 112.605469 380.503906 103.410156 366.171875 109.050781 349.785156 C 111.691406 342.113281 116.398438 337.449219 118.648438 335.265625 C 130.222656 324.050781 145.183594 323.011719 151.335938 322.558594 C 178.613281 320.578125 199.050781 337.621094 204.253906 342.226562 Z M 204.253906 342.226562 " fill-opacity="1" fill-rule="nonzero"/><path fill="#303159" d="M 448.117188 361.296875 C 463.011719 368.300781 471.382812 380.085938 472.746094 382.058594 C 478.417969 390.246094 480.710938 397.941406 481.417969 400.515625 C 484.066406 410.191406 484.109375 420.367188 484.148438 428.136719 C 484.15625 429.621094 484.140625 430.734375 484.132812 431.160156 C 484.019531 439.433594 483.921875 455.609375 483.929688 489.234375 L 458.902344 489.234375 C 458.429688 457.230469 458.371094 443.828125 458.4375 438.015625 C 458.4375 437.820312 458.4375 435.457031 458.460938 432.285156 C 458.503906 423.675781 458.46875 419.378906 458.03125 415.867188 C 457.546875 411.898438 456.878906 406.425781 453.554688 400.304688 C 450.644531 394.941406 447.050781 391.558594 445.359375 390 C 444.1875 388.914062 441.703125 386.691406 438.226562 384.773438 C 430.792969 380.671875 423.5625 380.617188 420.449219 380.625 C 406.792969 380.683594 396.886719 388.078125 393.609375 390.75 L 393.609375 361.914062 C 397.640625 360.140625 422.859375 349.425781 448.117188 361.296875 Z M 448.117188 361.296875 " fill-opacity="1" fill-rule="nonzero"/><path fill="#303159" d="M 313.09375 357.570312 L 338.121094 357.570312 C 338.300781 401.460938 338.484375 445.351562 338.664062 489.238281 L 313.09375 489.238281 Z M 313.09375 357.570312 " fill-opacity="1" fill-rule="nonzero"/><path fill="#303159" d="M 382.738281 357.570312 L 382.738281 489.238281 C 374.257812 489.238281 365.765625 489.238281 357.285156 489.238281 C 357.21875 445.351562 357.15625 401.460938 357.089844 357.570312 C 365.632812 357.570312 374.191406 357.570312 382.738281 357.570312 Z M 382.738281 357.570312 " fill-opacity="1" fill-rule="nonzero"/><path fill="#303159" d="M 339.210938 329.691406 C 339.210938 330.609375 339.121094 331.519531 338.941406 332.417969 C 338.761719 333.320312 338.496094 334.195312 338.144531 335.042969 C 337.792969 335.890625 337.363281 336.695312 336.855469 337.460938 C 336.34375 338.222656 335.765625 338.929688 335.117188 339.578125 C 334.464844 340.226562 333.761719 340.804688 332.996094 341.316406 C 332.234375 341.828125 331.429688 342.257812 330.578125 342.609375 C 329.730469 342.960938 328.859375 343.226562 327.957031 343.402344 C 327.058594 343.582031 326.148438 343.671875 325.230469 343.671875 C 324.3125 343.671875 323.402344 343.582031 322.503906 343.402344 C 321.601562 343.226562 320.726562 342.960938 319.878906 342.609375 C 319.03125 342.257812 318.226562 341.828125 317.464844 341.316406 C 316.699219 340.804688 315.992188 340.226562 315.34375 339.578125 C 314.695312 338.929688 314.117188 338.222656 313.605469 337.460938 C 313.097656 336.695312 312.664062 335.890625 312.3125 335.042969 C 311.960938 334.195312 311.699219 333.320312 311.519531 332.417969 C 311.339844 331.519531 311.25 330.609375 311.25 329.691406 C 311.25 328.773438 311.339844 327.867188 311.519531 326.964844 C 311.699219 326.066406 311.960938 325.191406 312.3125 324.34375 C 312.664062 323.496094 313.097656 322.6875 313.605469 321.925781 C 314.117188 321.164062 314.695312 320.457031 315.34375 319.808594 C 315.992188 319.15625 316.699219 318.578125 317.464844 318.070312 C 318.226562 317.558594 319.03125 317.128906 319.878906 316.777344 C 320.726562 316.425781 321.601562 316.160156 322.503906 315.980469 C 323.402344 315.800781 324.3125 315.710938 325.230469 315.710938 C 326.148438 315.710938 327.058594 315.800781 327.957031 315.980469 C 328.859375 316.160156 329.730469 316.425781 330.578125 316.777344 C 331.429688 317.128906 332.234375 317.558594 332.996094 318.070312 C 333.761719 318.578125 334.464844 319.15625 335.117188 319.808594 C 335.765625 320.457031 336.34375 321.164062 336.855469 321.925781 C 337.363281 322.6875 337.792969 323.496094 338.144531 324.34375 C 338.496094 325.191406 338.761719 326.066406 338.941406 326.964844 C 339.121094 327.867188 339.210938 328.773438 339.210938 329.691406 Z M 339.210938 329.691406 " fill-opacity="1" fill-rule="nonzero"/><path fill="#0cc9ce" d="M 671.484375 356.902344 C 671.484375 357.726562 671.441406 358.546875 671.363281 359.367188 C 671.28125 360.1875 671.160156 361 671 361.808594 C 670.839844 362.617188 670.640625 363.414062 670.398438 364.203125 C 670.160156 364.992188 669.882812 365.765625 669.566406 366.527344 C 669.253906 367.285156 668.902344 368.03125 668.511719 368.757812 C 668.125 369.484375 667.703125 370.1875 667.246094 370.875 C 666.785156 371.558594 666.296875 372.21875 665.773438 372.855469 C 665.25 373.492188 664.699219 374.101562 664.117188 374.683594 C 663.535156 375.265625 662.925781 375.820312 662.289062 376.339844 C 661.652344 376.863281 660.992188 377.355469 660.304688 377.8125 C 659.621094 378.269531 658.914062 378.691406 658.1875 379.082031 C 657.464844 379.46875 656.71875 379.820312 655.957031 380.136719 C 655.199219 380.449219 654.421875 380.726562 653.636719 380.96875 C 652.847656 381.207031 652.046875 381.40625 651.242188 381.566406 C 650.433594 381.726562 649.621094 381.847656 648.800781 381.929688 C 647.980469 382.007812 647.160156 382.050781 646.335938 382.050781 C 645.511719 382.050781 644.691406 382.007812 643.871094 381.929688 C 643.050781 381.847656 642.238281 381.726562 641.429688 381.566406 C 640.621094 381.40625 639.824219 381.207031 639.035156 380.96875 C 638.246094 380.726562 637.472656 380.449219 636.710938 380.136719 C 635.949219 379.820312 635.207031 379.46875 634.480469 379.082031 C 633.753906 378.691406 633.046875 378.269531 632.363281 377.8125 C 631.679688 377.355469 631.019531 376.863281 630.382812 376.339844 C 629.746094 375.820312 629.136719 375.265625 628.554688 374.683594 C 627.96875 374.101562 627.417969 373.492188 626.894531 372.855469 C 626.375 372.21875 625.882812 371.558594 625.425781 370.875 C 624.96875 370.1875 624.546875 369.484375 624.15625 368.757812 C 623.769531 368.03125 623.417969 367.285156 623.101562 366.527344 C 622.785156 365.765625 622.507812 364.992188 622.269531 364.203125 C 622.03125 363.414062 621.832031 362.617188 621.671875 361.808594 C 621.511719 361 621.390625 360.1875 621.308594 359.367188 C 621.226562 358.546875 621.1875 357.726562 621.1875 356.902344 C 621.1875 356.078125 621.226562 355.257812 621.308594 354.4375 C 621.390625 353.617188 621.511719 352.804688 621.671875 351.996094 C 621.832031 351.1875 622.03125 350.390625 622.269531 349.601562 C 622.507812 348.8125 622.785156 348.039062 623.101562 347.277344 C 623.417969 346.519531 623.769531 345.773438 624.15625 345.046875 C 624.546875 344.320312 624.96875 343.617188 625.425781 342.929688 C 625.882812 342.246094 626.375 341.585938 626.894531 340.949219 C 627.417969 340.3125 627.96875 339.703125 628.554688 339.121094 C 629.136719 338.539062 629.746094 337.984375 630.382812 337.464844 C 631.019531 336.941406 631.679688 336.449219 632.363281 335.992188 C 633.046875 335.535156 633.753906 335.113281 634.480469 334.722656 C 635.207031 334.335938 635.949219 333.984375 636.710938 333.667969 C 637.472656 333.355469 638.246094 333.078125 639.035156 332.835938 C 639.824219 332.597656 640.621094 332.398438 641.429688 332.238281 C 642.238281 332.078125 643.050781 331.957031 643.871094 331.875 C 644.691406 331.796875 645.511719 331.753906 646.335938 331.753906 C 647.160156 331.753906 647.980469 331.796875 648.800781 331.875 C 649.621094 331.957031 650.433594 332.078125 651.242188 332.238281 C 652.046875 332.398438 652.847656 332.597656 653.636719 332.835938 C 654.421875 333.078125 655.199219 333.355469 655.957031 333.667969 C 656.71875 333.984375 657.464844 334.335938 658.1875 334.722656 C 658.914062 335.113281 659.621094 335.535156 660.304688 335.992188 C 660.992188 336.449219 661.652344 336.941406 662.289062 337.464844 C 662.925781 337.984375 663.535156 338.539062 664.117188 339.121094 C 664.699219 339.703125 665.25 340.3125 665.773438 340.949219 C 666.296875 341.585938 666.785156 342.246094 667.246094 342.929688 C 667.703125 343.617188 668.125 344.320312 668.511719 345.046875 C 668.902344 345.773438 669.253906 346.519531 669.566406 347.277344 C 669.882812 348.039062 670.160156 348.8125 670.398438 349.601562 C 670.640625 350.390625 670.839844 351.1875 671 351.996094 C 671.160156 352.804688 671.28125 353.617188 671.363281 354.4375 C 671.441406 355.257812 671.484375 356.078125 671.484375 356.902344 Z M 671.484375 356.902344 " fill-opacity="1" fill-rule="nonzero"/></svg>